# Blender 4.2.0
# www.blender.org
mtllib Ratamari slippers L.mtl
o shoes_posed_reverse_position
v -7.344312 0.109438 0.915747
v -7.406817 0.503488 1.315446
v -6.229424 0.948638 -1.008717
v -7.010037 0.451205 0.044788
v -5.897018 0.983672 -0.983617
v -6.044453 1.778888 -0.592354
v -6.296731 1.156853 -0.970391
v -6.682359 0.701565 -0.508785
v -7.378339 0.242076 1.006850
v -6.966675 -0.009616 1.402295
v -7.045647 0.528129 1.619355
v -6.634208 1.115777 0.715388
v -7.060991 0.591475 0.129847
v -5.916517 1.195916 -0.924704
v -6.430684 0.468636 0.205442
v -6.764504 0.851377 -0.400804
v -6.697517 0.211117 0.799972
v -6.367021 1.728470 -0.641037
v -6.163851 0.726154 -0.389087
v -6.978326 1.180833 0.171527
v -7.091995 1.035347 0.402859
v -6.513414 1.274826 0.449092
v -7.189905 0.259065 0.502384
v -6.791605 0.882732 1.060651
v -7.244384 0.825137 0.730618
v -7.231706 0.397334 0.549355
v -7.418775 0.197000 1.452298
v -7.411236 -0.007005 1.397268
v -7.068964 -0.049683 1.634131
v -7.408697 0.370524 1.494979
v -7.104381 0.389772 1.744753
v -7.097751 0.168323 1.714727
v -5.953944 1.024718 -0.850355
v -6.232171 0.994956 -0.870190
v -7.131292 0.320092 0.572453
v -6.714039 0.275179 0.842142
v -6.003671 1.434919 -0.708882
v -6.298944 1.358166 -0.756722
v -6.952344 1.048112 0.131978
v -6.494516 1.116204 0.395145
v -7.065192 0.910430 0.362962
v -7.187838 0.572614 0.651536
v -6.614882 0.965137 0.660994
v -6.752822 0.578955 0.951397
v -6.348036 0.080346 1.350288
v -6.578996 0.479315 1.676512
v -5.654608 0.931853 -0.758002
v -5.920423 0.419387 0.520040
v -5.626756 1.137289 -0.678172
v -5.725258 0.673617 -0.091331
v -6.385145 0.213074 1.440046
v -5.941236 0.558778 0.618245
v -5.741209 0.821496 0.045522
v -5.792205 1.711685 -0.390323
v -5.999004 1.152236 0.598673
v -6.098365 1.006333 0.836246
v -6.142824 0.228490 0.959084
v -6.245223 0.795961 1.166417
v -6.142056 0.365516 1.024622
v -6.686131 0.175606 1.771851
v -6.660951 -0.028914 1.724516
v -6.715725 0.350289 1.797229
v -5.751924 0.980933 -0.660724
v -6.230954 0.293801 0.965150
v -5.771870 1.342775 -0.526831
v -5.994193 1.020133 0.549891
v -6.093472 0.882055 0.786793
v -6.238089 0.544881 1.065783
v -4.392677 0.035764 0.898108
v -4.431580 0.548518 1.131587
v -5.164385 0.009807 -1.350132
v -4.572870 0.009807 -0.078606
v -5.496893 0.009807 -1.392429
v -5.474688 0.903117 -1.299167
v -5.118125 0.225024 -1.380032
v -4.802219 0.009807 -0.729679
v -4.384698 0.194901 0.938879
v -4.849102 0.046996 1.328296
v -4.845254 0.632013 1.344460
v -5.109219 0.813601 0.235804
v -4.547600 0.176044 -0.043480
v -5.501662 0.229976 -1.412460
v -5.172300 0.009807 -0.029137
v -4.751366 0.196740 -0.672046
v -5.010004 0.009807 0.652508
v -5.146373 0.879411 -1.274481
v -5.334597 0.009807 -0.710783
v -4.671417 0.728126 -0.232659
v -4.595949 0.687250 0.050598
v -5.185746 0.854071 -0.085610
v -4.473299 0.012279 0.439799
v -5.007646 0.736284 0.662413
v -4.497265 0.624466 0.452041
v -4.449553 0.162305 0.439240
v -4.428065 0.312560 1.370581
v -4.412815 0.102882 1.393073
v -4.791108 0.102882 1.571874
v -4.456397 0.487430 1.345053
v -4.803652 0.554191 1.519187
v -4.791287 0.337084 1.571120
v -5.469176 0.101266 -1.276020
v -5.191063 0.101266 -1.239381
v -4.547791 0.086043 0.472651
v -5.005712 0.086043 0.670533
v -5.471905 0.537860 -1.287482
v -5.168934 0.486576 -1.256761
v -4.681421 0.587797 -0.224802
v -5.184512 0.685549 -0.080428
v -4.607151 0.553953 0.055168
v -4.522528 0.355254 0.462346
v -5.108790 0.652290 0.237605
v -5.006679 0.411163 0.666473
v -5.450417 0.035764 1.149950
v -5.310472 0.548518 1.340847
v -5.774663 0.009807 -1.204828
v -5.729706 0.009807 0.196831
v -5.829433 0.225024 -1.210673
v -5.818367 0.009807 -0.487739
v -5.439166 0.194901 1.189942
v -5.736436 0.176044 0.239575
v -5.837792 0.196740 -0.413374
v -5.756651 0.879411 -1.129176
v -5.711157 0.728126 0.014897
v -5.650879 0.687250 0.301772
v -5.584978 0.012279 0.704484
v -5.558067 0.624466 0.704612
v -5.606428 0.162305 0.714686
v -5.205908 0.312560 1.555781
v -5.209387 0.102882 1.582733
v -5.192121 0.487430 1.520225
v -5.700938 0.101266 -1.117982
v -5.503675 0.086043 0.700242
v -5.728525 0.486576 -1.123525
v -5.698685 0.587797 0.017403
v -5.638820 0.553953 0.300803
v -5.530871 0.355254 0.702427
vn 0.3781 0.3869 -0.8410
vn 0.0617 0.3814 -0.9224
vn 0.0518 0.5032 -0.8626
vn 0.3540 0.5207 -0.7769
vn -0.9415 0.0092 -0.3369
vn -0.9793 -0.0004 -0.2022
vn -0.9897 0.0503 -0.1338
vn -0.9497 0.1197 -0.2894
vn 0.1128 -0.9401 -0.3217
vn 0.0711 -0.9710 -0.2281
vn 0.0683 -0.9568 -0.2824
vn 0.1095 -0.9381 -0.3287
vn -0.3727 0.8519 0.3680
vn -0.4154 0.8029 0.4276
vn -0.2261 0.7890 0.5713
vn -0.1779 0.8667 0.4660
vn -0.9083 0.0301 -0.4173
vn -0.8787 -0.0742 -0.4716
vn -0.9194 -0.0953 -0.3815
vn -0.4838 0.6994 0.5261
vn -0.2616 0.7157 0.6476
vn -0.9610 -0.0769 -0.2657
vn -0.9897 -0.0673 -0.1264
vn -0.9954 -0.0250 -0.0927
vn -0.8435 0.0853 -0.5303
vn -0.9186 0.1413 -0.3689
vn -0.8811 0.1829 -0.4360
vn 0.3937 0.2434 -0.8864
vn 0.0714 0.2387 -0.9685
vn -0.8000 0.0996 -0.5917
vn -0.8315 0.2395 -0.5013
vn -0.7468 -0.0405 -0.6638
vn -0.7915 -0.0440 -0.6096
vn 0.1242 -0.9296 -0.3469
vn 0.1238 -0.9300 -0.3461
vn 0.1227 -0.9300 -0.3464
vn -0.3824 0.8574 0.3445
vn -0.1713 0.8757 0.4514
vn -0.5951 -0.2919 0.7488
vn -0.3880 -0.3071 0.8690
vn -0.3949 -0.2272 0.8902
vn -0.6129 -0.2194 0.7591
vn -0.3990 -0.1479 0.9049
vn -0.6290 -0.1354 0.7655
vn 0.0544 -0.9802 -0.1903
vn -0.0033 -0.9766 -0.2150
vn -0.9979 0.0100 -0.0647
vn -0.1271 0.9267 0.3538
vn -0.1272 0.9267 0.3537
vn 0.8540 0.0736 0.5150
vn 0.8493 0.0757 0.5225
vn 0.8229 0.0862 0.5616
vn 0.8179 0.0310 0.5745
vn 0.8193 0.0441 0.5716
vn 0.3816 0.3615 -0.8507
vn 0.3816 0.3617 -0.8506
vn 0.5310 0.3520 -0.7708
vn 0.5278 0.3521 -0.7729
vn -0.0659 -0.3196 0.9453
vn -0.0523 -0.3197 0.9461
vn -0.3855 -0.3302 0.8616
vn -0.3856 -0.3286 0.8622
vn 0.3351 -0.8744 -0.3509
vn 0.1638 -0.8855 -0.4348
vn 0.8093 -0.0297 0.5866
vn 0.3846 0.3371 -0.8593
vn 0.4318 0.3352 -0.8374
vn -0.0818 -0.3194 0.9441
vn -0.3858 -0.3273 0.8626
vn 0.3816 0.3614 -0.8508
vn 0.5245 0.3523 -0.7751
vn 0.8923 0.0559 0.4479
vn -0.4848 -0.3547 0.7995
vn -0.3818 -0.3602 0.8512
vn 0.6213 0.4866 -0.6142
vn 0.6523 0.3641 -0.6648
vn 0.8866 -0.0441 0.4604
vn 0.8628 0.0667 0.5011
vn 0.7726 -0.0012 0.6349
vn 0.8132 -0.0528 0.5796
vn 0.1204 -0.9384 -0.3240
vn 0.1135 -0.9582 -0.2627
vn 0.0253 0.8402 0.5416
vn 0.0083 0.7905 0.6124
vn 0.8992 -0.1484 0.4117
vn 0.9385 -0.1272 0.3210
vn 0.9239 -0.0234 0.3819
vn -0.0224 0.6859 0.7274
vn 0.8435 -0.1296 0.5213
vn 0.7426 -0.0757 0.6654
vn 0.7614 -0.1185 0.6374
vn 0.9654 0.0324 0.2587
vn 0.9267 0.1301 0.3525
vn 0.9010 0.0882 0.4247
vn 0.6725 0.2212 -0.7063
vn 0.9815 0.0476 0.1854
vn 0.9436 0.1877 0.2729
vn 0.9914 -0.0912 0.0943
vn 0.9818 -0.0958 0.1639
vn 0.1248 -0.9301 -0.3455
vn 0.0494 0.8448 0.5329
vn -0.1586 -0.3046 0.9392
vn -0.1504 -0.2329 0.9608
vn -0.1401 -0.1497 0.9788
vn 0.1119 -0.9800 -0.1648
vn 0.7256 -0.0403 0.6870
vn -0.1273 0.9267 0.3536
vn -0.9536 0.1264 -0.2734
vn -0.9729 0.0965 -0.2101
vn -0.9747 0.0833 -0.2073
vn -0.9659 0.1384 -0.2187
vn -0.9557 0.1284 -0.2647
vn 0.2249 0.3610 -0.9051
vn 0.2211 0.3610 -0.9060
vn -0.6632 -0.3022 0.6848
vn -0.6731 -0.3016 0.6753
vn -0.0134 -0.8642 -0.5029
vn -0.9807 0.0226 -0.1941
vn 0.3364 0.3380 -0.8789
vn -0.6516 -0.3027 0.6956
vn 0.2287 0.3609 -0.9041
vn -0.9313 0.1091 -0.3475
vn -0.2737 -0.3609 0.8915
vn -0.2316 0.0210 -0.9726
vn -0.2282 0.1706 -0.9585
vn 0.0854 0.1621 -0.9831
vn 0.0943 0.0269 -0.9952
vn 0.9865 0.0086 -0.1637
vn 0.9789 0.1288 -0.1589
vn 0.9923 0.1232 0.0155
vn 0.9982 0.0510 -0.0305
vn 0.0069 -0.9996 0.0288
vn 0.0113 -0.9997 0.0221
vn 0.0439 -0.9960 0.0779
vn 0.0316 -0.9907 0.1325
vn 0.2440 0.9659 0.0870
vn 0.0335 0.9895 0.1406
vn 0.0651 0.9597 0.2732
vn 0.2773 0.9463 0.1662
vn 0.9796 -0.1068 -0.1701
vn 0.9558 -0.1235 -0.2669
vn 0.9682 -0.0040 -0.2503
vn 0.0894 0.9225 0.3755
vn 0.3315 0.8928 0.3051
vn 0.9970 -0.0443 -0.0639
vn 0.9943 0.0682 0.0815
vn 0.9977 0.0164 0.0651
vn 0.9232 -0.0000 -0.3844
vn 0.9362 0.1282 -0.3274
vn 0.9624 0.1175 -0.2447
vn -0.2297 -0.1301 -0.9645
vn 0.1022 -0.1229 -0.9871
vn 0.8915 -0.0134 -0.4528
vn 0.8967 0.1520 -0.4157
vn 0.8616 -0.1752 -0.4765
vn 0.8951 -0.1541 -0.4183
vn -0.0000 -1.0000 -0.0000
vn 0.0002 -1.0000 0.0009
vn 0.0014 -1.0000 0.0008
vn 0.2577 0.9640 0.0649
vn 0.0293 0.9920 0.1230
vn 0.4562 0.0623 0.8877
vn 0.4674 0.1355 0.8736
vn 0.2291 0.1466 0.9623
vn 0.2311 0.0642 0.9708
vn 0.4770 0.2178 0.8515
vn 0.2256 0.2260 0.9476
vn 0.1023 -0.9821 0.1583
vn 0.0412 -0.9840 0.1732
vn 0.9893 0.1108 0.0948
vn 0.0017 1.0000 0.0078
vn 0.0019 1.0000 0.0078
vn -0.9399 0.1411 0.3109
vn -0.9151 0.1376 0.3790
vn -0.9135 0.1265 0.3867
vn -0.9192 0.1728 0.3539
vn -0.9368 0.1462 0.3178
vn -0.2316 -0.0065 -0.9728
vn -0.3892 -0.0064 -0.9211
vn -0.3928 -0.0062 -0.9196
vn -0.2316 -0.0063 -0.9728
vn -0.0983 0.0390 0.9944
vn 0.2314 0.0416 0.9720
vn 0.2314 0.0398 0.9720
vn -0.1118 0.0375 0.9930
vn -0.2091 -0.9762 -0.0571
vn -0.0245 -0.9944 -0.1030
vn -0.9038 0.0754 0.4213
vn -0.2315 -0.0325 -0.9723
vn -0.2818 -0.0325 -0.9589
vn -0.0826 0.0408 0.9958
vn 0.2314 0.0429 0.9719
vn -0.2316 -0.0066 -0.9728
vn -0.3856 -0.0065 -0.9226
vn -0.9635 0.0965 0.2496
vn 0.3421 0.0078 0.9396
vn 0.2316 0.0079 0.9728
vn -0.5327 0.0269 -0.8459
vn -0.5193 0.1621 -0.8391
vn -0.9544 0.0086 0.2984
vn -0.9049 0.0510 0.4226
vn -0.8788 0.1232 0.4610
vn -0.9454 0.1288 0.2993
vn -0.0041 -0.9960 0.0894
vn -0.0002 -0.9997 0.0249
vn -0.1786 0.9659 0.1876
vn -0.1726 0.9463 0.2733
vn -0.9771 -0.0040 0.2129
vn -0.9735 -0.1235 0.1924
vn -0.9512 -0.1068 0.2896
vn -0.1584 0.8928 0.4218
vn -0.9188 -0.0443 0.3922
vn -0.8614 0.0164 0.5077
vn -0.8509 0.0682 0.5208
vn -0.9973 -0.0000 0.0729
vn -0.9695 0.1175 0.2152
vn -0.9832 0.1282 0.1296
vn -0.5361 -0.1229 -0.8352
vn -0.9999 -0.0134 -0.0024
vn -0.9878 0.1520 0.0330
vn -0.9838 -0.1752 -0.0371
vn -0.9876 -0.1541 0.0300
vn -0.0009 -1.0000 0.0014
vn -0.2008 0.9640 0.1741
vn -0.0072 0.0623 0.9980
vn -0.0236 0.1355 0.9905
vn -0.0421 0.2178 0.9751
vn -0.0200 -0.9821 0.1874
vn -0.8404 0.1108 0.5305
vn 0.0020 1.0000 0.0077
vn 0.9792 0.1411 -0.1461
vn 0.9795 0.1462 -0.1385
vn 0.9800 0.1728 -0.0983
vn 0.9897 0.1265 -0.0664
vn 0.9877 0.1376 -0.0740
vn -0.0638 -0.0062 -0.9979
vn -0.0676 -0.0064 -0.9977
vn 0.5358 0.0390 0.8434
vn 0.5473 0.0375 0.8361
vn 0.1609 -0.9762 -0.1452
vn 0.9967 0.0754 -0.0312
vn -0.1806 -0.0325 -0.9830
vn 0.5224 0.0408 0.8517
vn -0.0715 -0.0065 -0.9974
vn 0.9726 0.0965 -0.2114
vn 0.1180 0.0078 0.9930
vt 0.436941 0.375000
vt 0.436940 0.500000
vt 0.625000 0.500000
vt 0.625000 0.375000
vt 0.436940 0.685983
vt 0.453054 0.728932
vt 0.625000 0.750000
vt 0.625000 0.687500
vt 0.250000 0.687500
vt 0.250000 0.750000
vt 0.375000 0.722953
vt 0.375000 0.684493
vt 0.750000 0.750000
vt 0.750000 0.687500
vt 0.436940 0.638394
vt 0.375000 0.633837
vt 0.375000 0.750000
vt 0.511383 0.750000
vt 0.436940 0.574669
vt 0.625000 0.643033
vt 0.625000 0.612987
vt 0.375000 0.375000
vt 0.375000 0.500000
vt 0.375000 0.566966
vt 0.250000 0.500000
vt 0.250000 0.562500
vt 0.250000 0.625000
vt 0.750000 0.643033
vt 0.750000 0.612303
vt 0.375000 0.875000
vt 0.511382 0.875000
vt 0.625000 0.875000
vt 0.750000 0.687500
vt 0.750000 0.500000
vt 0.625000 0.375000
vt 0.750000 0.612303
vt 0.750000 0.643033
vt 0.436941 0.500000
vt 0.436940 0.685983
vt 0.436940 0.638394
vt 0.436941 0.574669
vt 0.436940 0.375000
vt 0.453054 0.728932
vt 0.436940 0.638394
vt 0.511383 0.750000
vt 0.436940 0.574669
vt 0.511383 0.875000
vt 0.436941 0.638394
s 1
g shoes_posed_reverse_position_Material.001
usemtl Material.001
f 17/9/9 10/10/10 1/11/11 23/12/12
f 26/5/5 13/15/17 4/16/18 23/12/19
f 2/7/14 30/7/20 31/13/21 11/13/15
f 1/11/22 28/17/23 27/18/24 9/6/6
f 23/12/19 1/11/22 9/6/6 26/5/5
f 5/22/28 3/23/29 7/2/2 14/1/1
f 3/23/32 8/24/33 16/19/25 7/2/30
f 5/25/34 19/26/34 8/24/34 3/23/34
f 15/27/35 17/9/9 23/12/12 4/16/36
f 4/16/18 13/15/17 16/19/25 8/24/33
f 19/26/34 15/27/35 4/16/36 8/24/34
f 28/17/39 29/30/40 32/31/41 27/18/42
f 27/18/42 32/31/41 31/32/43 30/7/44
f 10/10/10 29/10/45 28/17/46 1/11/11
f 9/6/6 27/18/24 30/7/47 2/7/7
f 17/9/9 57/12/81 45/11/82 10/10/10
f 59/39/77 57/12/85 48/16/86 52/40/87
f 46/7/84 11/13/15 31/13/21 62/7/88
f 45/11/89 51/6/80 60/18/90 61/17/91
f 57/12/85 59/39/77 51/6/80 45/11/89
f 5/22/28 14/1/1 49/38/76 47/23/95
f 47/23/98 49/38/96 53/41/92 50/24/99
f 5/25/34 47/23/34 50/24/34 19/26/34
f 15/27/35 48/16/100 57/12/81 17/9/9
f 48/16/86 50/24/99 53/41/92 52/40/87
f 19/26/34 50/24/34 48/16/100 15/27/35
f 61/17/102 60/18/103 32/31/41 29/30/40
f 60/18/103 62/7/104 31/32/43 32/31/41
f 10/10/10 45/11/82 61/17/105 29/10/45
f 51/6/80 46/7/79 62/7/106 60/18/90
f 85/9/132 91/12/133 69/11/134 78/10/135
f 94/5/128 91/12/140 72/16/141 81/44/142
f 70/7/139 79/13/138 99/13/143 98/7/144
f 69/11/145 77/43/131 95/45/146 96/17/147
f 91/12/140 94/5/128 77/43/131 69/11/145
f 73/22/151 82/42/124 75/2/127 71/23/152
f 71/23/155 75/2/153 84/46/148 76/24/156
f 73/25/157 71/23/157 76/24/157 87/26/157
f 83/27/158 72/16/159 91/12/133 85/9/132
f 72/16/141 76/24/156 84/46/148 81/44/142
f 87/26/157 76/24/157 72/16/159 83/27/158
f 96/17/162 95/45/163 100/47/164 97/30/165
f 95/45/163 98/7/166 99/32/167 100/47/164
f 78/10/135 69/11/134 96/17/168 97/10/169
f 77/43/131 70/7/130 98/7/170 95/45/146
f 85/9/132 78/10/135 113/11/204 125/12/205
f 127/5/200 120/48/208 116/16/209 125/12/210
f 114/7/207 130/7/211 99/13/143 79/13/138
f 113/11/212 129/17/213 128/18/214 119/43/201
f 125/12/210 113/11/212 119/43/201 127/5/200
f 73/22/151 115/23/218 117/2/198 82/42/124
f 115/23/221 118/24/222 121/19/215 117/2/219
f 73/25/157 87/26/157 118/24/157 115/23/157
f 83/27/158 85/9/132 125/12/205 116/16/223
f 116/16/209 120/48/208 121/19/215 118/24/222
f 87/26/157 83/27/158 116/16/223 118/24/157
f 129/17/225 97/30/165 100/47/164 128/18/226
f 128/18/226 100/47/164 99/32/167 130/7/227
f 78/10/135 97/10/169 129/17/228 113/11/204
f 119/43/201 128/18/214 130/7/229 114/7/202
g shoes_posed_reverse_position_Material
usemtl Material
f 14/1/1 7/2/2 18/3/3 6/4/4
f 26/5/5 9/6/6 2/7/7 25/8/8
f 25/8/13 2/7/14 11/13/15 24/14/16
f 16/19/25 13/15/17 21/20/26 20/21/27
f 7/2/30 16/19/25 20/21/27 18/3/31
f 20/21/37 21/20/37 12/28/38 22/29/38
f 13/15/17 26/5/5 25/8/8 21/20/26
f 35/8/48 36/33/49 33/34/49 34/3/48
f 41/20/50 42/8/51 35/8/52 34/3/52 38/3/53 39/21/54
f 44/14/55 36/33/56 35/8/57 42/8/58
f 38/3/59 34/3/60 33/4/61 37/35/62
f 41/20/63 39/21/63 40/36/64 43/37/64
f 20/21/65 39/21/54 38/3/53 18/3/65
f 22/29/66 40/36/66 39/21/67 20/21/67
f 18/3/68 38/3/59 37/35/62 6/4/69
f 24/14/70 44/14/55 42/8/58 25/8/71
f 25/8/72 42/8/51 41/20/50 21/20/72
f 21/20/73 41/20/73 43/37/74 12/28/74
f 14/1/1 6/4/4 54/3/75 49/38/76
f 59/39/77 58/8/78 46/7/79 51/6/80
f 58/8/83 24/14/16 11/13/15 46/7/84
f 53/41/92 55/21/93 56/20/94 52/40/87
f 49/38/96 54/3/97 55/21/93 53/41/92
f 55/21/101 22/29/38 12/28/38 56/20/101
f 52/40/87 56/20/94 58/8/78 59/39/77
f 64/8/107 63/3/107 33/34/49 36/33/49
f 67/20/108 66/21/109 65/3/110 63/3/111 64/8/111 68/8/112
f 44/14/55 68/8/113 64/8/114 36/33/56
f 65/3/115 37/35/62 33/4/61 63/3/116
f 67/20/117 43/37/64 40/36/64 66/21/117
f 55/21/118 54/3/118 65/3/110 66/21/109
f 22/29/66 55/21/119 66/21/119 40/36/66
f 54/3/120 6/4/69 37/35/62 65/3/115
f 24/14/70 58/8/121 68/8/113 44/14/55
f 58/8/122 56/20/122 67/20/108 68/8/112
f 56/20/123 12/28/74 43/37/74 67/20/123
f 82/42/124 74/4/125 86/3/126 75/2/127
f 94/5/128 93/8/129 70/7/130 77/43/131
f 93/8/136 92/14/137 79/13/138 70/7/139
f 84/46/148 88/21/149 89/20/150 81/44/142
f 75/2/153 86/3/154 88/21/149 84/46/148
f 88/21/160 90/29/161 80/28/161 89/20/160
f 81/44/142 89/20/150 93/8/129 94/5/128
f 103/8/171 102/3/171 101/34/172 104/33/172
f 109/20/173 107/21/174 106/3/175 102/3/176 103/8/176 110/8/177
f 112/14/178 110/8/179 103/8/180 104/33/181
f 106/3/182 105/35/183 101/4/184 102/3/185
f 109/20/186 111/37/187 108/36/187 107/21/186
f 88/21/188 86/3/188 106/3/175 107/21/174
f 90/29/189 88/21/190 107/21/190 108/36/189
f 86/3/191 74/4/192 105/35/183 106/3/182
f 92/14/193 93/8/194 110/8/179 112/14/178
f 93/8/195 89/20/195 109/20/173 110/8/177
f 89/20/196 80/28/197 111/37/197 109/20/196
f 82/42/124 117/2/198 122/3/199 74/4/125
f 127/5/200 119/43/201 114/7/202 126/8/203
f 126/8/206 114/7/207 79/13/138 92/14/137
f 121/19/215 120/48/208 124/20/216 123/21/217
f 117/2/219 121/19/215 123/21/217 122/3/220
f 123/21/224 124/20/224 80/28/161 90/29/161
f 120/48/208 127/5/200 126/8/203 124/20/216
f 132/8/230 104/33/172 101/34/172 131/3/230
f 135/20/231 136/8/232 132/8/233 131/3/233 133/3/234 134/21/235
f 112/14/178 104/33/181 132/8/236 136/8/237
f 133/3/238 131/3/239 101/4/184 105/35/183
f 135/20/240 134/21/240 108/36/187 111/37/187
f 123/21/241 134/21/235 133/3/234 122/3/241
f 90/29/189 108/36/189 134/21/242 123/21/242
f 122/3/243 133/3/238 105/35/183 74/4/192
f 92/14/193 112/14/178 136/8/237 126/8/244
f 126/8/245 136/8/232 135/20/231 124/20/245
f 124/20/246 135/20/246 111/37/197 80/28/197
