# Blender 4.2.0
# www.blender.org
mtllib Ratamari miku hair.mtl
o MIKUE_HAIR
v 0.356395 3.694009 0.421469
v 0.434695 3.799626 0.496538
v 0.306223 3.874337 0.525426
v 0.227923 3.768721 0.450357
v -0.014800 3.056436 1.156203
v 0.307217 3.449553 0.832394
v 0.368329 3.508268 0.957850
v 0.240948 3.585954 0.983541
v 0.179836 3.527240 0.858085
v -0.388681 3.049739 0.861197
v -0.351364 3.813436 0.782952
v -0.388681 2.801785 -0.171579
v -0.388681 3.781528 -0.001231
v 0.652980 3.049739 0.861197
v 0.652980 3.710779 0.698599
v 0.652980 2.801785 -0.171579
v 0.652980 3.702067 -0.001231
v 0.211110 2.990105 -0.234467
v 0.176233 3.843524 -0.128916
v 0.333288 3.604447 0.928617
v 0.335534 3.891545 0.705258
v -0.600163 2.884614 0.349252
v -0.502509 3.911514 0.398976
v 0.813588 2.884614 0.349252
v 0.676270 3.851127 0.398976
v 0.349799 3.976344 0.398976
v 0.349799 3.498525 0.349252
v -0.470644 3.380259 0.947924
v -0.470644 3.261718 -0.171750
v 0.727133 3.188699 -0.171750
v 0.727133 3.380259 0.947924
v 0.378513 3.757368 0.947924
v 0.198987 3.416776 -0.234638
v 0.832862 3.398064 0.377759
v -0.657677 3.398064 0.377759
v 0.887969 2.932518 -0.404297
v 0.888131 2.986348 -0.497802
v 1.120187 2.994173 -0.217570
v 1.028625 2.937038 -0.234051
v 1.231252 3.184316 -0.407938
v 1.235114 3.134455 -0.316247
v 1.003465 3.127127 -0.596828
v 1.090600 3.179796 -0.578179
v 2.119641 0.188087 -0.684349
v -0.896796 2.899501 -0.261814
v -0.974106 2.967987 -0.243736
v -0.757692 2.907246 -0.529946
v -0.765428 2.862402 -0.435142
v -0.929861 3.130903 -0.617650
v -0.856460 3.068368 -0.639290
v -1.073079 3.129443 -0.353307
v -1.061511 3.168082 -0.443951
v -1.837611 0.119597 -1.130845
v 0.442308 3.835295 0.226100
v 0.496594 3.784125 0.248982
v 0.513422 3.779549 0.278740
v 0.510650 3.817061 0.347654
v 0.493988 3.842939 0.361055
v 0.443586 3.887969 0.334831
v 0.426781 3.892538 0.305116
v 0.425190 3.861881 0.239868
v -0.358193 3.803440 0.253640
v -0.335291 3.803818 0.178805
v -0.308496 3.818527 0.162044
v -0.249951 3.862957 0.186410
v -0.238847 3.876409 0.215968
v -0.262928 3.873687 0.283119
v -0.289906 3.858876 0.299994
v -0.346928 3.817087 0.283626
v 0.501842 3.838929 -0.045565
v 0.655792 3.631126 -0.308389
v 0.679406 3.560326 -0.270223
v 0.527195 3.779352 -0.016675
v 0.548954 3.775736 0.008501
v 0.727413 3.549802 -0.217546
v 0.774650 3.598168 -0.178791
v 0.590497 3.825533 0.057390
v 0.595427 3.857673 0.062336
v 0.786207 3.672315 -0.189620
v 0.754452 3.740656 -0.225926
v 0.568425 3.909595 0.033525
v 0.546611 3.912628 0.008900
v 0.709291 3.752225 -0.271717
v 0.665373 3.711425 -0.312718
v 0.506861 3.871455 -0.040146
v -0.474286 3.843887 0.004016
v -0.666345 3.615865 -0.209141
v -0.617656 3.563511 -0.239012
v -0.428794 3.791070 -0.031697
v -0.403925 3.791380 -0.055550
v -0.569485 3.567734 -0.289288
v -0.542231 3.630108 -0.332950
v -0.373647 3.844981 -0.091254
v -0.378071 3.876687 -0.092006
v -0.550192 3.713384 -0.343514
v -0.594920 3.760627 -0.311924
v -0.421175 3.921703 -0.057060
v -0.445984 3.921695 -0.032642
v -0.641282 3.755498 -0.267684
v -0.675351 3.696867 -0.225849
v -0.478580 3.876364 0.003581
v -1.336764 1.925829 -0.168504
v -1.150921 2.455973 -0.232197
v -1.358218 2.555811 -0.192364
v -1.652324 2.080978 -0.137611
v -1.098679 1.905256 -0.820626
v -1.002109 2.441620 -0.698021
v -0.983476 2.402026 -0.467877
v -1.092247 1.848600 -0.463741
v -1.692686 2.233787 -1.029290
v -1.421720 2.674502 -0.839277
v -1.203929 2.568292 -0.873910
v -1.363818 2.073965 -1.066902
v -1.907921 2.247011 -0.378007
v -1.566469 2.685864 -0.359062
v -1.592619 2.730047 -0.595572
v -1.926664 2.307980 -0.724162
v 1.016494 1.423002 -0.454963
v 0.970010 2.156062 -0.436080
v 0.920171 2.178896 -0.670778
v 0.951378 1.467292 -0.834688
v 1.690277 1.590023 -0.246227
v 1.408370 2.261909 -0.315917
v 1.181147 2.192414 -0.277247
v 1.317129 1.471951 -0.212494
v 1.856682 1.756532 -0.955682
v 1.503667 2.357528 -0.763519
v 1.552618 2.334914 -0.522878
v 1.920988 1.710088 -0.552097
v 1.160106 1.580100 -1.143023
v 1.057160 2.250299 -0.881892
v 1.287730 2.322806 -0.923971
v 1.533948 1.700257 -1.200143
v 1.350724 0.544506 -0.522387
v 1.050876 0.993591 -0.460504
v 0.995425 1.045989 -0.928554
v 1.312275 0.593744 -0.915876
v 1.967939 0.840803 -0.259550
v 1.793043 1.353164 -0.181790
v 1.384099 1.122127 -0.150506
v 1.622406 0.646970 -0.251399
v 2.150917 1.064198 -0.935004
v 1.980646 1.601198 -0.983274
v 2.036592 1.550071 -0.527664
v 2.186838 1.013531 -0.541818
v 1.531356 0.766804 -1.200993
v 1.249982 1.248028 -1.272908
v 1.658406 1.477843 -1.291887
v 1.879412 0.962060 -1.208844
v -1.574436 0.898597 -0.324636
v -1.438522 1.423306 -0.124541
v -1.868510 1.497608 -0.126487
v -1.947023 0.965164 -0.342421
v -1.257476 0.987364 -0.941864
v -1.095244 1.535735 -0.857784
v -1.115851 1.439654 -0.436321
v -1.288849 0.907890 -0.573273
v -1.869207 1.156790 -1.232561
v -1.811227 1.734582 -1.177696
v -1.385569 1.658865 -1.167728
v -1.497829 1.090366 -1.214598
v -2.187517 1.068503 -0.616326
v -2.167098 1.622797 -0.441910
v -2.142285 1.719567 -0.872936
v -2.154932 1.147833 -0.985096
vn 0.1116 0.5194 -0.8472
vn 0.7492 -0.6599 -0.0561
vn 0.2915 0.1664 0.9420
vn -0.8571 0.4772 0.1941
vn -0.3949 -0.3694 -0.8412
vn 0.8505 -0.4909 -0.1889
vn 0.5182 0.6880 0.5080
vn -0.8505 0.4909 0.1890
vn -0.5222 -0.7047 -0.4803
vn -0.8929 0.2716 -0.3590
vn 0.2823 0.2971 -0.9122
vn 0.9235 0.3292 0.1969
vn -0.1346 0.5901 0.7961
vn -0.8305 -0.5570 0.0036
vn -0.0756 0.9601 0.2693
vn 0.4065 0.8479 0.3403
vn 0.5672 -0.8173 0.1017
vn 0.5613 0.6642 0.4937
vn -0.1951 0.2860 -0.9382
vn 0.4251 -0.7861 0.4488
vn 0.3445 0.8754 -0.3390
vn -0.1096 0.9582 -0.2643
vn -0.5938 -0.6313 0.4988
vn 0.9357 0.2687 -0.2285
vn -0.8838 0.3095 0.3508
vn -0.9103 -0.1999 0.3625
vn 0.9718 -0.0940 -0.2162
vn -0.0958 -0.0105 -0.9953
vn -0.1483 -0.1768 0.9730
vn 0.0813 -0.2076 0.9748
vn 0.9568 -0.1407 0.2546
vn 0.1244 -0.0099 -0.9922
vn -0.9379 -0.1250 -0.3236
vn -0.9077 -0.1203 0.4019
vn 0.8977 -0.4182 -0.1388
vn 0.4791 -0.7042 0.5240
vn -0.6323 0.2164 0.7439
vn -0.8078 0.1160 -0.5779
vn 0.0498 0.0360 0.9981
vn -0.2043 -0.7593 -0.6179
vn -0.9861 -0.1059 0.1282
vn -0.8206 0.0237 -0.5710
vn -0.0113 0.2075 0.9782
vn 0.7954 0.6046 -0.0427
vn 0.2544 -0.4872 -0.8354
vn 0.9930 -0.0638 -0.0989
vn 0.7324 -0.2113 -0.6473
vn 0.8252 -0.1607 0.5416
vn 0.9500 0.0984 0.2963
vn 0.0622 0.9936 0.0948
vn 0.2861 -0.4751 0.8321
vn -0.1961 -0.9806 -0.0085
vn 0.8351 -0.5481 -0.0471
vn 0.9996 -0.0261 0.0131
vn 0.0446 0.2563 -0.9656
vn -0.9330 0.3540 0.0646
vn -0.7316 -0.5131 0.4488
vn -0.6501 -0.0938 -0.7540
vn 0.6606 -0.2909 -0.6921
vn 0.9034 0.1276 -0.4094
vn -0.1095 0.9713 0.2112
vn 0.0308 -0.0966 -0.9948
vn 0.2608 -0.9651 -0.0252
vn 0.7276 -0.0465 0.6845
vn 0.7301 0.1018 -0.6757
vn -0.6599 0.3799 -0.6482
vn -0.6520 -0.0299 0.7576
vn 0.5884 0.4709 0.6572
vn 0.4627 0.5290 -0.7114
vn -0.2194 0.2878 -0.9322
vn -0.2518 -0.7944 0.5528
vn 0.0956 -0.0667 0.9932
vn 0.9299 0.3612 -0.0690
vn -0.1912 0.3111 -0.9310
vn -0.6678 -0.1390 0.7312
vn 0.7048 0.1402 0.6955
vn 0.5819 0.4456 -0.6803
vn -0.6380 0.0005 -0.7700
vn 0.4465 0.1838 0.8757
vn 0.5847 0.6529 -0.4816
vn -0.4407 -0.8855 0.1474
vn -0.1563 -0.6843 0.7122
vn -0.3598 0.4135 0.8364
vn 0.0506 0.3935 -0.9179
vn -0.9513 -0.2733 -0.1429
vn 0.7081 -0.3720 0.6002
vn 0.6455 -0.0788 -0.7597
vn -0.4610 0.7349 -0.4974
vn -0.5273 0.1958 0.8268
vn 0.7206 -0.0252 -0.6929
vn -0.5838 0.5851 -0.5629
vn -0.9616 -0.1160 -0.2489
vn -0.8248 0.5523 0.1214
vn -0.6770 0.7083 -0.2003
vn 0.0552 0.4810 -0.8750
vn 0.9591 -0.2820 0.0240
vn 0.7029 -0.6658 -0.2503
vn -0.7152 -0.3661 0.5954
vn -0.2467 -0.1745 0.9532
vn 0.3982 0.9101 -0.1150
vn 0.8034 -0.5734 0.1606
vn -0.0074 0.4298 -0.9029
vn 0.2281 -0.1442 0.9629
vn 0.7676 0.5630 0.3063
vn -0.5857 0.6968 0.4139
vn -0.9473 -0.2991 -0.1144
vn 0.6603 0.6923 0.2910
vn 0.7138 -0.3241 0.6208
vn -0.8883 -0.4242 -0.1761
vn 0.0536 -0.6916 0.7203
vn 0.8164 0.5269 0.2365
vn -0.1763 0.8039 -0.5680
vn -0.1352 -0.6086 0.7819
vn 0.8508 -0.5096 -0.1279
vn 0.2674 0.7180 -0.6426
vn -0.7615 0.6229 0.1792
vn -0.8229 0.1119 -0.5571
vn -0.5385 -0.7697 0.3428
vn 0.7560 -0.0813 0.6495
vn 0.4421 0.8639 -0.2413
vn -0.7559 0.0103 0.6546
vn 0.4712 -0.7774 0.4167
vn 0.8115 0.0300 -0.5836
vn -0.3642 0.8775 -0.3119
vn -0.7756 -0.6179 -0.1288
vn -0.6559 0.7243 0.2126
vn 0.1543 0.0426 0.9871
vn 0.9816 -0.1772 -0.0710
vn 0.0512 0.3583 -0.9322
vn -0.7894 0.5907 0.1674
vn 0.7586 -0.1668 0.6298
vn -0.4741 0.3613 0.8029
vn 0.6873 0.0509 -0.7246
vn -0.5663 0.6041 -0.5606
vn 0.1771 -0.0390 0.9834
vn -0.9816 -0.0750 0.1755
vn 0.0818 0.1201 0.9894
vn 0.8505 0.5175 -0.0940
vn -0.2502 0.3132 -0.9161
vn -0.6109 -0.0518 0.7900
vn -0.8428 0.0818 -0.5319
vn 0.6823 0.3620 0.6352
vn 0.4623 0.5053 -0.7286
vn -0.9877 -0.0878 0.1290
vn -0.0844 -0.3500 0.9329
vn 0.9552 -0.2959 -0.0029
vn 0.0493 0.0810 -0.9955
vn -0.9971 0.0450 -0.0617
vn -0.8245 -0.5654 0.0232
vn 0.1228 -0.1267 0.9843
vn 0.9565 0.2834 -0.0695
vn 0.0400 -0.1337 -0.9902
vn -0.5307 -0.4369 0.7263
vn -0.5774 -0.4328 -0.6923
vn 0.7417 0.1731 0.6480
vn 0.6614 0.1543 -0.7340
vn 0.6309 -0.3971 0.6666
vn -0.7583 -0.1581 0.6324
vn 0.7173 -0.0954 -0.6903
vn -0.6629 0.1474 -0.7340
vn -0.4317 -0.8993 -0.0704
vt 0.000000 0.000000
vt 0.500000 0.125000
vt 0.625000 0.125000
vt 0.625000 0.250000
vt 0.500000 0.250000
vt 0.500000 0.375000
vt 0.625000 0.375000
vt 0.625000 0.500000
vt 0.500000 0.500000
vt 0.500000 0.625000
vt 0.625000 0.625000
vt 0.625000 0.750000
vt 0.500000 0.750000
vt 0.500000 0.875000
vt 0.625000 0.875000
vt 0.625000 1.000000
vt 0.500000 1.000000
vt 0.250000 0.625000
vt 0.375000 0.625000
vt 0.375000 0.750000
vt 0.250000 0.750000
vt 0.750000 0.625000
vt 0.875000 0.625000
vt 0.875000 0.750000
vt 0.750000 0.750000
vt 0.125000 0.625000
vt 0.125000 0.750000
vt 0.125000 0.500000
vt 0.250000 0.500000
vt 0.750000 0.500000
vt 0.875000 0.500000
vt 0.375000 0.500000
vt 0.500000 0.000000
vt 0.625000 0.000000
vt 0.375000 0.000000
vt 0.375000 0.125000
vt 0.375000 0.250000
vt 0.375000 0.375000
vt 0.375000 0.875000
vt 0.375000 1.000000
s 0
g MIKUE_HAIR_miku_hair
usemtl miku_hair
f 4/1/1 3/1/1 2/1/1 1/1/1
f 7/1/2 5/1/2 6/1/2
f 8/1/3 5/1/3 7/1/3
f 9/1/4 5/1/4 8/1/4
f 6/1/5 5/1/5 9/1/5
f 2/1/6 7/1/6 6/1/6 1/1/6
f 3/1/7 8/1/7 7/1/7 2/1/7
f 4/1/8 9/1/8 8/1/8 3/1/8
f 1/1/9 6/1/9 9/1/9 4/1/9
f 35/2/10 23/3/10 13/4/10 29/5/10
f 33/6/11 19/7/11 17/8/11 30/9/11
f 34/10/12 25/11/12 15/12/12 31/13/12
f 32/14/13 21/15/13 11/16/13 28/17/13
f 27/18/14 24/19/14 14/20/14 20/21/14
f 26/22/15 23/23/15 11/24/15 21/25/15
f 25/11/16 26/22/16 21/25/16 15/12/16
f 22/26/17 27/18/17 20/21/17 10/27/17
f 31/13/18 15/12/18 21/15/18 32/14/18
f 29/5/19 13/4/19 19/7/19 33/6/19
f 12/28/20 18/29/20 27/18/20 22/26/20
f 17/8/21 19/30/21 26/22/21 25/11/21
f 19/30/22 13/31/22 23/23/22 26/22/22
f 18/29/23 16/32/23 24/19/23 27/18/23
f 30/9/24 17/8/24 25/11/24 34/10/24
f 28/33/25 11/34/25 23/3/25 35/2/25
f 10/35/26 28/33/26 35/2/26 22/36/26
f 16/32/27 30/9/27 34/10/27 24/19/27
f 12/37/28 29/5/28 33/6/28 18/38/28
f 14/20/29 31/13/29 32/14/29 20/39/29
f 20/39/30 32/14/30 28/17/30 10/40/30
f 24/19/31 34/10/31 31/13/31 14/20/31
f 18/38/32 33/6/32 30/9/32 16/32/32
f 22/36/33 35/2/33 29/5/33 12/37/33
f 101/1/34 86/1/34 62/1/34 69/1/34
f 107/1/35 47/1/35 48/1/35 108/1/35
f 157/1/36 150/1/36 53/1/36
f 163/1/37 152/1/37 105/1/37 114/1/37
f 37/1/38 42/1/38 131/1/38 120/1/38
f 105/1/39 152/1/39 151/1/39 102/1/39
f 44/1/40 137/1/40 146/1/40
f 121/1/41 136/1/41 135/1/41 118/1/41
f 147/1/42 136/1/42 121/1/42 130/1/42
f 139/1/43 122/1/43 125/1/43 140/1/43
f 143/1/44 126/1/44 129/1/44 144/1/44
f 44/1/45 146/1/45 149/1/45
f 44/1/46 142/1/46 145/1/46
f 44/1/47 149/1/47 142/1/47
f 44/1/48 145/1/48 138/1/48
f 77/1/49 78/1/49 58/1/49 57/1/49
f 81/1/50 82/1/50 60/1/50 59/1/50
f 44/1/51 138/1/51 141/1/51
f 73/1/52 74/1/52 56/1/52 55/1/52
f 53/1/53 154/1/53 157/1/53
f 155/1/54 106/1/54 109/1/54 156/1/54
f 159/1/55 110/1/55 113/1/55 160/1/55
f 163/1/56 114/1/56 117/1/56 164/1/56
f 153/1/57 162/1/57 53/1/57
f 165/1/58 158/1/58 53/1/58
f 161/1/59 154/1/59 53/1/59
f 93/1/60 94/1/60 66/1/60 65/1/60
f 97/1/61 98/1/61 68/1/61 67/1/61
f 53/1/62 158/1/62 161/1/62
f 89/1/63 90/1/63 64/1/63 63/1/63
f 151/1/64 156/1/64 109/1/64 102/1/64
f 155/1/65 160/1/65 113/1/65 106/1/65
f 159/1/66 164/1/66 117/1/66 110/1/66
f 135/1/67 140/1/67 125/1/67 118/1/67
f 139/1/68 144/1/68 129/1/68 122/1/68
f 143/1/69 148/1/69 133/1/69 126/1/69
f 147/1/70 130/1/70 133/1/70 148/1/70
f 44/1/71 141/1/71 134/1/71
f 123/1/72 38/1/72 39/1/72 124/1/72
f 127/1/73 40/1/73 41/1/73 128/1/73
f 131/1/74 42/1/74 43/1/74 132/1/74
f 39/1/75 36/1/75 119/1/75 124/1/75
f 41/1/76 38/1/76 123/1/76 128/1/76
f 43/1/77 40/1/77 127/1/77 132/1/77
f 71/1/78 84/1/78 42/1/78 37/1/78
f 79/1/79 76/1/79 38/1/79 41/1/79
f 83/1/80 80/1/80 40/1/80 43/1/80
f 86/1/81 89/1/81 63/1/81 62/1/81
f 153/1/82 53/1/82 150/1/82
f 115/1/83 104/1/83 46/1/83 51/1/83
f 111/1/84 49/1/84 50/1/84 112/1/84
f 53/1/85 162/1/85 165/1/85
f 103/1/86 108/1/86 48/1/86 45/1/86
f 107/1/87 112/1/87 50/1/87 47/1/87
f 111/1/88 116/1/88 52/1/88 49/1/88
f 87/1/89 100/1/89 51/1/89 46/1/89
f 95/1/90 92/1/90 47/1/90 50/1/90
f 99/1/91 96/1/91 49/1/91 52/1/91
f 85/1/92 70/1/92 54/1/92 61/1/92
f 51/1/93 100/1/93 99/1/93 52/1/93
f 82/1/94 85/1/94 61/1/94 60/1/94
f 42/1/95 84/1/95 83/1/95 43/1/95
f 47/1/96 92/1/96 91/1/96 48/1/96
f 90/1/97 93/1/97 65/1/97 64/1/97
f 75/1/98 72/1/98 36/1/98 39/1/98
f 38/1/99 76/1/99 75/1/99 39/1/99
f 94/1/100 97/1/100 67/1/100 66/1/100
f 74/1/101 77/1/101 57/1/101 56/1/101
f 49/1/102 96/1/102 95/1/102 50/1/102
f 87/1/103 46/1/103 45/1/103 88/1/103
f 40/1/104 80/1/104 79/1/104 41/1/104
f 98/1/105 101/1/105 69/1/105 68/1/105
f 71/1/106 37/1/106 36/1/106 72/1/106
f 78/1/107 81/1/107 59/1/107 58/1/107
f 91/1/108 88/1/108 45/1/108 48/1/108
f 73/1/109 70/1/109 71/1/109 72/1/109
f 77/1/110 74/1/110 75/1/110 76/1/110
f 81/1/111 78/1/111 79/1/111 80/1/111
f 85/1/112 82/1/112 83/1/112 84/1/112
f 89/1/113 86/1/113 87/1/113 88/1/113
f 93/1/114 90/1/114 91/1/114 92/1/114
f 97/1/115 94/1/115 95/1/115 96/1/115
f 101/1/116 98/1/116 99/1/116 100/1/116
f 70/1/117 85/1/117 84/1/117 71/1/117
f 74/1/118 73/1/118 72/1/118 75/1/118
f 78/1/119 77/1/119 76/1/119 79/1/119
f 82/1/120 81/1/120 80/1/120 83/1/120
f 86/1/121 101/1/121 100/1/121 87/1/121
f 90/1/122 89/1/122 88/1/122 91/1/122
f 94/1/123 93/1/123 92/1/123 95/1/123
f 98/1/124 97/1/124 96/1/124 99/1/124
f 70/1/125 73/1/125 55/1/125 54/1/125
f 115/1/126 51/1/126 52/1/126 116/1/126
f 103/1/127 104/1/127 105/1/127 102/1/127
f 107/1/128 108/1/128 109/1/128 106/1/128
f 111/1/129 112/1/129 113/1/129 110/1/129
f 115/1/130 116/1/130 117/1/130 114/1/130
f 108/1/131 103/1/131 102/1/131 109/1/131
f 104/1/132 115/1/132 114/1/132 105/1/132
f 112/1/133 107/1/133 106/1/133 113/1/133
f 116/1/134 111/1/134 110/1/134 117/1/134
f 46/1/135 104/1/135 103/1/135 45/1/135
f 119/1/136 120/1/136 121/1/136 118/1/136
f 123/1/137 124/1/137 125/1/137 122/1/137
f 127/1/138 128/1/138 129/1/138 126/1/138
f 131/1/139 132/1/139 133/1/139 130/1/139
f 124/1/140 119/1/140 118/1/140 125/1/140
f 120/1/141 131/1/141 130/1/141 121/1/141
f 128/1/142 123/1/142 122/1/142 129/1/142
f 132/1/143 127/1/143 126/1/143 133/1/143
f 37/1/144 120/1/144 119/1/144 36/1/144
f 151/1/145 152/1/145 153/1/145 150/1/145
f 155/1/146 156/1/146 157/1/146 154/1/146
f 159/1/147 160/1/147 161/1/147 158/1/147
f 163/1/148 164/1/148 165/1/148 162/1/148
f 135/1/149 136/1/149 137/1/149 134/1/149
f 139/1/150 140/1/150 141/1/150 138/1/150
f 143/1/151 144/1/151 145/1/151 142/1/151
f 147/1/152 148/1/152 149/1/152 146/1/152
f 134/1/153 141/1/153 140/1/153 135/1/153
f 136/1/154 147/1/154 146/1/154 137/1/154
f 138/1/155 145/1/155 144/1/155 139/1/155
f 142/1/156 149/1/156 148/1/156 143/1/156
f 150/1/157 157/1/157 156/1/157 151/1/157
f 152/1/158 163/1/158 162/1/158 153/1/158
f 154/1/159 161/1/159 160/1/159 155/1/159
f 158/1/160 165/1/160 164/1/160 159/1/160
f 137/1/161 44/1/161 134/1/161
